<?xml version="1.0" standalone="no"?>
<!DOCTYPE svg PUBLIC "-//W3C//DTD SVG 20010904//EN"
 "http://www.w3.org/TR/2001/REC-SVG-20010904/DTD/svg10.dtd">
<svg version="1.0" xmlns="http://www.w3.org/2000/svg"
 width="260.000000pt" height="260.000000pt" viewBox="0 0 260.000000 260.000000"
 preserveAspectRatio="xMidYMid meet">
<metadata>
Created by potrace 1.11, written by Peter Selinger 2001-2013
</metadata>
<g transform="translate(0.000000,260.000000) scale(0.100000,-0.100000)"
fill="#000000" stroke="none">
<path d="M0 1300 l0 -1300 1300 0 1300 0 0 1300 0 1300 -1300 0 -1300 0 0
-1300z m1480 571 c162 -55 259 -170 272 -321 l3 -35 -115 -3 -116 -3 -12 45
c-22 84 -108 136 -227 136 -149 0 -243 -85 -202 -182 20 -47 57 -63 283 -119
228 -56 301 -86 354 -146 49 -56 70 -118 70 -209 0 -228 -186 -374 -475 -374
-196 0 -359 71 -434 189 -25 39 -60 149 -61 194 0 4 54 7 120 7 l120 0 6 -27
c16 -66 43 -101 99 -129 50 -24 67 -27 153 -26 147 1 221 40 237 126 16 85
-46 126 -265 176 -228 51 -312 84 -366 142 -43 45 -60 82 -74 156 -28 155 57
322 196 384 120 52 310 61 434 19z"/>
</g>
</svg>
